<svg xmlns="http://www.w3.org/2000/svg" viewBox="0 0 192 192" role="img" aria-label="Чип-тюнинг">
<defs>
  <filter id="g" x="-40%" y="-40%" width="180%" height="180%"><feGaussianBlur stdDeviation="2.2" result="b"/><feMerge><feMergeNode in="b"/><feMergeNode in="SourceGraphic"/></feMerge></filter>
  <linearGradient id="m" x1="0" y1="0" x2="1" y2="1"><stop stop-color="#25282c"/><stop offset="1" stop-color="#070809"/></linearGradient>
</defs>
<g fill="none" stroke="#ff6a00" stroke-width="5" stroke-linecap="round" stroke-linejoin="round" filter="url(#g)">
  <path d="M44 58H24V40M148 58h20V40M44 134H24v18M148 134h20v18"/>
  <path d="M52 44V22M76 44V14M116 44V14M140 44V22M52 148v22M76 148v30M116 148v30M140 148v22"/>
  <circle cx="24" cy="32" r="7"/><circle cx="52" cy="16" r="6"/><circle cx="76" cy="9" r="6"/>
  <circle cx="168" cy="32" r="7"/><circle cx="140" cy="16" r="6"/><circle cx="116" cy="9" r="6"/>
  <circle cx="24" cy="160" r="7"/><circle cx="52" cy="176" r="6"/><circle cx="76" cy="183" r="6"/>
  <circle cx="168" cy="160" r="7"/><circle cx="140" cy="176" r="6"/><circle cx="116" cy="183" r="6"/>
</g>
<rect x="39" y="46" width="114" height="102" rx="19" fill="url(#m)" stroke="#ff7b19" stroke-width="5"/>
<path d="M55 66h82M55 78h82" stroke="#696d72" stroke-width="3"/>
<path d="M59 104h74v27H59z" fill="#0c0d0f" stroke="#ff6a00" stroke-width="4"/>
<g fill="#ff7b19"><rect x="66" y="111" width="7" height="12" rx="2"/><rect x="79" y="111" width="7" height="12" rx="2"/><rect x="92" y="111" width="7" height="12" rx="2"/><rect x="105" y="111" width="7" height="12" rx="2"/><rect x="118" y="111" width="7" height="12" rx="2"/></g>
<path d="M61 92c16-16 32-24 49-23 11 1 21 5 31 12" stroke="#fff" stroke-width="3" opacity=".85"/>
<path d="M112 70l11-7 8 2" stroke="#ff6a00" stroke-width="4"/>
</svg>