<svg xmlns="http://www.w3.org/2000/svg" viewBox="0 0 96 96" fill="none">
  <g stroke="#ff7a00" stroke-width="4.2" stroke-linecap="round" stroke-linejoin="round">
    <path d="M26 56l5-14a6 6 0 0 1 5.6-4h21a6 6 0 0 1 5.6 4L68 56"/>
    <rect x="18" y="56" width="58" height="14" rx="6"/>
    <circle cx="31" cy="63" r="3" fill="#ff7a00" stroke="none"/>
    <circle cx="63" cy="63" r="3" fill="#ff7a00" stroke="none"/>
    <path d="M32 28c0 4-4 5.5-4 9a4 4 0 0 0 8 0c0-3.5-4-5-4-9zM48 20c0 4-4 5.5-4 9a4 4 0 0 0 8 0c0-3.5-4-5-4-9zM64 28c0 4-4 5.5-4 9a4 4 0 0 0 8 0c0-3.5-4-5-4-9z"/>
  </g>
</svg>
